/////////////////////////////////////////////////////////////////////////////
// sfz definition file
// copyright Chicken Systems, Inc.
// -------------------------------------------------------------------------
// Application: Translator 6 6.0, Build 34
// Vendor: 


<region> sample=..\..\processed drums\kicks\wams20_kick_classic-1_p.wav lokey=36 hikey=36 end=15952 pitch_keycenter=36 bend_up=700 bend_down=-700 amp_veltrack=59.842518 ampeg_decay=165.399994 ampeg_release=38.118999 pitchlfo_freq=5.998879 

<region> sample=..\..\processed drums\percussion\wams20_rimshot_classic_p.wav lokey=37 hikey=37 end=4384 pitch_keycenter=37 bend_up=700 bend_down=-700 amp_veltrack=59.842518 ampeg_decay=165.399994 ampeg_release=38.118999 pitchlfo_freq=5.998879 

<region> sample=..\..\processed drums\snares\wams20_snare_classic-acoustic-1a_p.wav lokey=38 hikey=38 end=8944 pitch_keycenter=38 bend_up=700 bend_down=-700 amp_veltrack=59.842518 ampeg_decay=165.399994 ampeg_release=38.118999 pitchlfo_freq=5.998879 

<region> sample=..\..\processed drums\snares\wams20_snare_clap-3_p.wav lokey=39 hikey=39 end=13232 pitch_keycenter=39 bend_up=700 bend_down=-700 amp_veltrack=59.842518 ampeg_decay=165.399994 ampeg_release=38.118999 pitchlfo_freq=5.998879 

<region> sample=..\..\processed drums\snares\wams20_snare_hard-resonance_p.wav lokey=40 hikey=40 end=7648 pitch_keycenter=40 bend_up=700 bend_down=-700 amp_veltrack=59.842518 ampeg_decay=165.399994 ampeg_release=38.118999 pitchlfo_freq=5.998879 

<region> sample=..\..\processed drums\toms\wams20_tom_mids-tone-2_p.wav lokey=41 hikey=41 end=79872 pitch_keycenter=41 bend_up=700 bend_down=-700 amp_veltrack=59.842518 ampeg_decay=165.399994 ampeg_release=38.118999 pitchlfo_freq=5.998879 

<region> sample=..\..\processed drums\cymbals\wams20_cl-hat_chunky-tick_p.wav lokey=42 hikey=42 end=4464 pitch_keycenter=42 bend_up=700 bend_down=-700 amp_veltrack=59.842518 ampeg_decay=165.399994 ampeg_release=38.118999 pitchlfo_freq=5.998879 

<region> sample=..\..\processed drums\toms\wams20_tom_mids-tone-1b_p.wav lokey=43 hikey=43 end=75584 pitch_keycenter=43 bend_up=700 bend_down=-700 amp_veltrack=59.842518 ampeg_decay=165.399994 ampeg_release=38.118999 pitchlfo_freq=5.998879 

<region> sample=..\..\processed drums\cymbals\wams20_cl-hat_tick_p.wav lokey=44 hikey=44 end=2784 pitch_keycenter=44 bend_up=700 bend_down=-700 amp_veltrack=59.842518 ampeg_decay=165.399994 ampeg_release=38.118999 pitchlfo_freq=5.998879 

<region> sample=..\..\processed drums\toms\wams20_tom_mids-tone-1a_p.wav lokey=45 hikey=45 end=18688 pitch_keycenter=45 bend_up=700 bend_down=-700 amp_veltrack=59.842518 ampeg_decay=165.399994 ampeg_release=38.118999 pitchlfo_freq=5.998879 

<region> sample=..\..\processed drums\cymbals\wams20_op-hat_chunky-mids-1_p.wav lokey=46 hikey=46 end=22729 pitch_keycenter=46 bend_up=700 bend_down=-700 amp_veltrack=59.842518 ampeg_decay=165.399994 ampeg_release=38.118999 pitchlfo_freq=5.998879 

<region> sample=..\..\processed drums\percussion\wams20_cowbell_classic-2c_p.wav lokey=47 hikey=47 end=33696 pitch_keycenter=47 bend_up=700 bend_down=-700 amp_veltrack=59.842518 ampeg_decay=165.399994 ampeg_release=38.118999 pitchlfo_freq=5.998879 

<region> sample=..\..\processed drums\percussion\wams20_clave_pop-1b_p.wav lokey=48 hikey=48 end=4640 pitch_keycenter=48 bend_up=700 bend_down=-700 amp_veltrack=59.842518 ampeg_decay=165.399994 ampeg_release=38.118999 pitchlfo_freq=5.998879 

<region> sample=..\..\processed drums\cymbals\wams20_splash_metal-tones-1_p.wav lokey=49 hikey=49 end=48256 pitch_keycenter=49 bend_up=700 bend_down=-700 amp_veltrack=59.842518 ampeg_decay=165.399994 ampeg_release=38.118999 pitchlfo_freq=5.998879 

<region> sample=..\..\processed drums\cymbals\wams20_ride_classic-1_p.wav lokey=50 hikey=50 end=56960 pitch_keycenter=50 bend_up=700 bend_down=-700 amp_veltrack=59.842518 ampeg_decay=165.399994 ampeg_release=38.118999 pitchlfo_freq=5.998879 

